<?xml version="1.0" encoding="UTF-8"?>
<svg version="1.1" xmlns="http://www.w3.org/2000/svg" width="2048" height="2048">
<path d="M0 0 C675.84 0 1351.68 0 2048 0 C2048 675.84 2048 1351.68 2048 2048 C1372.16 2048 696.32 2048 0 2048 C0 1372.16 0 696.32 0 0 Z " fill="#FFFFFF" transform="translate(0,0)"/>
<g transform="matrix(1.65, 0, 0, 1.65, -653.97, -466.53)">
<path d="M0 0 C0 31.02 0 62.04 0 94 C-6.27 94 -12.54 94 -19 94 C-19 68.92 -19 43.84 -19 18 C-41.31591466 19.39544626 -41.31591466 19.39544626 -63.5 21.75 C-65.39093384 21.99943359 -65.39093384 21.99943359 -67.32006836 22.25390625 C-89.31361058 25.29560999 -110.72033141 30.34299482 -131.875 37.0625 C-133.03902344 37.42698242 -133.03902344 37.42698242 -134.2265625 37.79882812 C-153.13062598 43.77771398 -171.43073959 51.85599856 -189 61 C-191.66250539 62.34183686 -194.33089649 63.67130154 -197 65 C-195.49485021 70.20258297 -193.16557657 74.57976729 -190.5 79.25 C-189.58960332 80.86444778 -188.67945371 82.4790349 -187.76953125 84.09375 C-187.30627441 84.91230469 -186.84301758 85.73085938 -186.36572266 86.57421875 C-185.08775999 88.8441217 -183.82680782 91.12226828 -182.57421875 93.40625 C-177.28845621 103.0336569 -171.79067044 112.5138735 -166.11401367 121.91699219 C-165.31120972 123.25745605 -165.31120972 123.25745605 -164.4921875 124.625 C-164.01120605 125.42164063 -163.53022461 126.21828125 -163.03466797 127.0390625 C-162 129 -162 129 -162 131 C-162.74765625 131.39832031 -163.4953125 131.79664063 -164.265625 132.20703125 C-165.25046875 132.73683594 -166.2353125 133.26664063 -167.25 133.8125 C-168.22453125 134.33457031 -169.1990625 134.85664062 -170.203125 135.39453125 C-172.97527893 136.89761004 -172.97527893 136.89761004 -175.171875 138.69921875 C-177 140 -177 140 -180 140 C-180.3717334 139.30664551 -180.7434668 138.61329102 -181.12646484 137.89892578 C-192.11375422 117.4175349 -203.28479598 97.07648561 -215 77 C-221.2579213 78.53339793 -226.03551495 82.13280168 -231.25 85.75 C-232.21711914 86.41596191 -233.18423828 87.08192383 -234.18066406 87.76806641 C-247.10265957 96.74815354 -259.47052559 106.28639156 -271 117 C-272.39177037 118.21301087 -273.78745664 119.42154717 -275.1875 120.625 C-278.35189976 123.3772034 -281.30380157 126.27960879 -284.23828125 129.2734375 C-285.98846344 130.98869366 -287.80890835 132.55240575 -289.6875 134.125 C-312.25118513 153.6395385 -332.75196742 180.96222215 -347 207 C-345.89688477 207.42188599 -345.89688477 207.42188599 -344.77148438 207.85229492 C-342.27325543 208.88684163 -340.00336067 210.02819133 -337.65625 211.36328125 C-336.42104614 212.06553833 -336.42104614 212.06553833 -335.16088867 212.78198242 C-334.28279541 213.28705322 -333.40470215 213.79212402 -332.5 214.3125 C-331.57872314 214.84012939 -330.65744629 215.36775879 -329.70825195 215.91137695 C-322.22952617 220.22492773 -314.8902858 224.74293327 -307.57348633 229.32421875 C-299.8543365 234.13980828 -291.9794359 238.63218997 -284 243 C-284.82799187 247.47115609 -287.22282634 250.77445692 -289.625 254.5625 C-290.86975452 256.76911028 -291.54223078 258.52804624 -292 261 C-295.58521659 260.32388237 -298.30148066 258.83122434 -301.4453125 257.0078125 C-302.51354248 256.3905127 -303.58177246 255.77321289 -304.68237305 255.13720703 C-305.81843994 254.47317871 -306.95450684 253.80915039 -308.125 253.125 C-309.30434112 252.43976542 -310.48378527 251.75470813 -311.66333008 251.06982422 C-321.92931801 245.09514562 -332.06301308 238.91311679 -342.16210938 232.66162109 C-344.25016041 231.37235784 -346.34325989 230.09167763 -348.4375 228.8125 C-349.05906982 228.42529785 -349.68063965 228.0380957 -350.32104492 227.63916016 C-353.1162612 225.93854382 -354.66317357 225 -358 225 C-366.75690291 242.09459239 -374.40757637 259.43821682 -381.06201172 277.46020508 C-381.70248256 279.19441074 -382.35027637 280.92592502 -383.00439453 282.6550293 C-392.39578445 307.79398462 -397.93969417 334.86089469 -401.3125 361.4375 C-401.47194092 362.67902832 -401.63138184 363.92055664 -401.7956543 365.19970703 C-403.09646639 376.17302205 -403.47053495 386.88123392 -404 398 C-378.92 398 -353.84 398 -328 398 C-328 404.6 -328 411.2 -328 418 C-352.75 418 -377.5 418 -403 418 C-400.67241707 458.73270124 -395.97050109 503.84795536 -379 542 C-378.24755851 543.9876806 -377.50083876 545.97753069 -376.7578125 547.96875 C-374.08019238 554.97268219 -371.00129981 561.74493131 -367.80615234 568.5234375 C-366.86393073 570.52349679 -365.92957975 572.52710081 -364.99609375 574.53125 C-361.88938369 581.28497469 -361.88938369 581.28497469 -358.30126953 587.78710938 C-357 590 -357 590 -357 592 C-341.50860235 583.39652824 -326.15464197 574.66594505 -311.0859375 565.33984375 C-310.04131348 564.69660156 -308.99668945 564.05335938 -307.92041016 563.390625 C-305.83562461 562.10629693 -303.75444714 560.81609024 -301.67724609 559.51953125 C-300.2514624 558.64167969 -300.2514624 558.64167969 -298.796875 557.74609375 C-297.51828613 556.95223267 -297.51828613 556.95223267 -296.21386719 556.14233398 C-294 555 -294 555 -291 555 C-289.24609375 557.484375 -289.24609375 557.484375 -287.4375 560.75 C-286.83808594 561.81734375 -286.23867188 562.8846875 -285.62109375 563.984375 C-284.37250823 566.30704493 -283.17153257 568.63847551 -282 571 C-288.19768864 575.23003478 -294.51981651 579.15714463 -301 582.9375 C-310.57381392 588.55617595 -320.10251858 594.24640466 -329.61132812 599.97436523 C-334.70951746 603.04163245 -339.8175529 606.07712899 -345 609 C-343.39052116 613.85667301 -340.64293528 617.63868418 -337.6875 621.75 C-336.89279297 622.86338745 -336.89279297 622.86338745 -336.08203125 623.99926758 C-324.34227061 640.34640201 -311.86841435 655.88515968 -298.09545898 670.56347656 C-295.77731266 673.03842325 -293.53031241 675.54192426 -291.38671875 678.16796875 C-289.42927399 680.49063233 -287.57688253 682.38834714 -285.25 684.3125 C-282.23913492 686.87314226 -279.44259108 689.54105122 -276.6875 692.375 C-271.7812768 697.34013154 -266.44606844 701.64617927 -261 706 C-259.24957178 707.45781932 -257.49957438 708.91615608 -255.75 710.375 C-245.9809802 718.3477361 -235.71861767 725.60486815 -225.25 732.625 C-224.08778931 733.40677612 -224.08778931 733.40677612 -222.90209961 734.2043457 C-222.17643799 734.68605225 -221.45077637 735.16775879 -220.703125 735.6640625 C-220.06020508 736.09154785 -219.41728516 736.5190332 -218.75488281 736.95947266 C-216.86923405 738.16127692 -216.86923405 738.16127692 -214 739 C-213.89453857 738.29254639 -213.78907715 737.58509277 -213.68041992 736.85620117 C-212.91434094 733.64042864 -211.69315619 731.20385209 -210.11328125 728.30078125 C-209.51104736 727.18590332 -208.90881348 726.07102539 -208.28833008 724.92236328 C-207.62988167 723.71898708 -206.97126775 722.51570142 -206.3125 721.3125 C-205.63830691 720.07048018 -204.96473113 718.82812509 -204.29174805 717.58544922 C-202.89781756 715.01295363 -201.50062716 712.44226508 -200.1015625 709.87255859 C-198.06050156 706.11839702 -196.04297436 702.35197527 -194.03125 698.58203125 C-193.39940809 697.39994341 -192.7674921 696.21789517 -192.13549805 695.03588867 C-190.94531241 692.80901261 -189.75660572 690.58134529 -188.56958008 688.3527832 C-187.75589966 686.83624146 -187.75589966 686.83624146 -186.92578125 685.2890625 C-186.45567627 684.40943848 -185.98557129 683.52981445 -185.5012207 682.62353516 C-183.80783233 679.66416754 -181.89130975 676.83696463 -180 674 C-174.39 676.64 -168.78 679.28 -163 682 C-164.00364219 686.01456875 -165.40509412 688.87834031 -167.359375 692.51171875 C-167.70033707 693.1491098 -168.04129913 693.78650085 -168.39259338 694.44320679 C-169.50790953 696.52671045 -170.62902346 698.60703724 -171.75 700.6875 C-173.30289673 703.58480707 -174.8526425 706.48379527 -176.40234375 709.3828125 C-176.79145432 710.10978836 -177.18056488 710.83676422 -177.58146667 711.58576965 C-181.75540038 719.39279071 -185.83110722 727.24932105 -189.88769531 735.11791992 C-192.48684879 740.14636161 -195.14559907 745.11158415 -198 750 C-197.12504883 750.27457031 -196.25009766 750.54914062 -195.34863281 750.83203125 C-192.21601001 751.92465793 -189.38171463 753.19685983 -186.421875 754.6875 C-164.44563199 765.60247818 -142.13946132 774.4617661 -118.52929688 781.25927734 C-116.2422592 781.92905266 -113.97195199 782.6346264 -111.703125 783.36328125 C-93.8461587 789.03640836 -75.29153284 791.86257837 -56.75 794.25 C-54.88976196 794.49472046 -54.88976196 794.49472046 -52.99194336 794.74438477 C-41.60630475 796.13439288 -30.56524147 796.47430721 -19 797 C-19 772.25 -19 747.5 -19 722 C-12.73 722 -6.46 722 0 722 C0 753.02 0 784.04 0 816 C-33.16763227 816 -63.03787122 814.635252 -95 808 C-96.455271 807.70222656 -96.455271 807.70222656 -97.93994141 807.3984375 C-114.70920578 803.92594099 -131.4284711 799.59936437 -147.2878418 793.07250977 C-150.35190932 791.86083917 -153.45129411 790.79222933 -156.56640625 789.71875 C-164.89849219 786.76463657 -172.90950138 783.19144775 -180.9375 779.5 C-181.70179321 779.14962677 -182.46608643 778.79925354 -183.25354004 778.43826294 C-214.45093697 764.08877574 -243.40582067 745.72296826 -270 724 C-270.82242188 723.35160156 -271.64484375 722.70320313 -272.4921875 722.03515625 C-285.09612356 711.99314784 -296.50555916 700.58302417 -307.9375 689.25 C-308.80101074 688.39954102 -309.66452148 687.54908203 -310.55419922 686.67285156 C-315.7200794 681.51393483 -320.45844704 676.1612468 -325.02368164 670.46435547 C-326.5904964 668.51062746 -328.17929057 666.59878461 -329.828125 664.71484375 C-337.5041491 655.9121774 -344.31875779 646.57293034 -351 637 C-351.4419873 636.36868164 -351.88397461 635.73736328 -352.33935547 635.08691406 C-375.45044171 601.85965145 -392.66934359 565.47391049 -405 527 C-405.31372559 526.03682861 -405.62745117 525.07365723 -405.95068359 524.08129883 C-408.61406014 515.71224392 -410.66174949 507.27150563 -412.5 498.6875 C-412.72544495 497.64178833 -412.72544495 497.64178833 -412.95544434 496.57495117 C-425.51243422 438.15721723 -428.09407755 377.1658869 -413.67871094 318.78271484 C-413.07962019 316.3264428 -412.52866958 313.8683271 -412.0078125 311.39453125 C-408.70833033 295.94572297 -403.69907494 280.72433384 -398 266 C-397.60953491 264.96758179 -397.60953491 264.96758179 -397.21118164 263.91430664 C-389.20469853 242.83064607 -379.46218714 222.42609308 -368 203 C-367.51450684 202.17580566 -367.02901367 201.35161133 -366.52880859 200.50244141 C-358.7601848 187.41754084 -350.25204509 175.07484322 -341 163 C-340.50226074 162.34386719 -340.00452148 161.68773437 -339.49169922 161.01171875 C-333.55206854 153.19204824 -327.28812238 145.83579247 -320.55810547 138.68530273 C-318.60402146 136.57169541 -316.69583255 134.41897654 -314.78125 132.26953125 C-310.0486338 127.00200061 -305.13377351 121.94192478 -300.125 116.9375 C-299.24730957 116.05989014 -298.36961914 115.18228027 -297.46533203 114.27807617 C-292.29035924 109.14861555 -287.09112037 104.30733992 -281.33203125 99.83984375 C-278.94979115 97.96038799 -276.77147884 95.95426333 -274.5625 93.875 C-225.56823074 49.49557557 -159.46791644 19.5408021 -95 7 C-94.10394043 6.81985352 -93.20788086 6.63970703 -92.28466797 6.45410156 C-85.87617536 5.16984847 -79.45215796 4.04139308 -73 3 C-72.09733398 2.84756836 -71.19466797 2.69513672 -70.26464844 2.53808594 C-46.78739105 -1.29071652 -24.04141423 0 0 0 Z " fill="#000000" stroke="#000000" stroke-width="18" stroke-linecap="round" stroke-linejoin="round" transform="translate(1025,496)"/>
<path d="M0 0 C29.37 0 58.74 0 89 0 C89 24.89314516 89 24.89314516 88.25 37.25 C88.1876416 38.30803833 88.1876416 38.30803833 88.12402344 39.38745117 C87.21533405 54.52722604 85.4124947 69.52441675 83.44628906 84.55761719 C82.97334782 88.20557751 82.52503212 91.85485059 82.11376953 95.51025391 C81.95548722 96.91213671 81.78729786 98.31293882 81.60888672 99.71240234 C81.15791218 103.45169612 81.00015008 107.01532654 81.140625 110.78125 C81.38145181 131.52148758 69.79403487 149.13258524 60.17218018 166.83563232 C58.57993974 169.77561868 57.02233641 172.73287072 55.46484375 175.69140625 C45.74623662 193.99810804 35.20771743 212.08238195 23.66899109 229.30683899 C21.89209794 232.07344998 21.89209794 232.07344998 20.30293274 235.47583008 C17.59098953 240.78160445 15.32904485 245.16443299 9.52529907 247.24658203 C5.22034513 247.65889108 1.11953076 247.63016043 -3.19140625 247.4375 C-4.79826555 247.41736453 -6.40521224 247.40339145 -8.01217651 247.3951416 C-12.31084782 247.35524482 -16.60278091 247.2285861 -20.89899826 247.08273315 C-25.3531178 246.94438019 -29.80833925 246.88001383 -34.26391602 246.80664062 C-41.43573988 246.67849478 -48.6046967 246.50026304 -55.77441406 246.28515625 C-63.62131749 246.05047037 -71.46492566 245.90803485 -79.31477356 245.82666016 C-84.49610181 245.77277699 -89.67640554 245.67529477 -94.85690308 245.56884766 C-97.22808846 245.52325454 -99.59948836 245.48763597 -101.97097778 245.46240234 C-105.23171325 245.42003661 -108.48696945 245.32697577 -111.74609375 245.21875 C-113.14539627 245.21494324 -113.14539627 245.21494324 -114.57296753 245.21105957 C-119.92935359 244.96833561 -122.5806088 243.94521351 -126.40795898 240.10595703 C-127.01469955 239.40826202 -127.62144012 238.71056702 -128.24656677 237.99172974 C-130.97492867 234.89257578 -134.23711438 232.69846541 -137.625 230.375 C-138.33430664 229.87556885 -139.04361328 229.3761377 -139.77441406 228.86157227 C-144.02988092 225.90507072 -148.36587729 223.15124311 -152.8203125 220.50390625 C-153.80435059 219.90980957 -154.78838867 219.31571289 -155.80224609 218.70361328 C-157.71952612 217.55489672 -159.65174054 216.4306282 -161.60009766 215.33544922 C-168.75156393 211.03783623 -171.20158659 206.72349437 -174 199 C-174.85019325 196.97658623 -175.70982005 194.95711416 -176.578125 192.94140625 C-177.90349279 189.78345514 -179.22446544 186.62371352 -180.54296875 183.46289062 C-183.71209727 175.91669039 -187.03304576 168.44980891 -190.40452576 160.99230957 C-200.76906819 138.03367792 -210.78021349 114.89133655 -220.53256226 91.66598511 C-221.29488969 89.85435007 -222.06592422 88.04638677 -222.8371582 86.23852539 C-223.27890381 85.17625732 -223.72064941 84.11398926 -224.17578125 83.01953125 C-224.55645752 82.11307861 -224.93713379 81.20662598 -225.3293457 80.27270508 C-226 78 -226 78 -225 75 C-214.13002456 83.38589761 -203.35754533 91.87296663 -192.73974609 100.57617188 C-191.18051673 101.85226304 -189.615989 103.12187381 -188.05078125 104.390625 C-182.3504149 109.01749171 -176.75947939 113.75850693 -171.19970703 118.55224609 C-167.59416922 121.65473166 -163.94782583 124.69476808 -160.25 127.6875 C-155.88067714 131.2327839 -151.70580662 134.94630352 -147.546875 138.734375 C-144.00124726 141.88846102 -140.33056034 144.87649313 -136.640625 147.859375 C-134 150 -134 150 -131.375 152.5078125 C-127.12549263 156.05134013 -121.93776969 157.43580343 -116.75 159.125 C-115.27080078 159.62580078 -115.27080078 159.62580078 -113.76171875 160.13671875 C-110.84849769 161.11546891 -107.92621455 162.06091253 -105 163 C-104.09910645 163.30147949 -103.19821289 163.60295898 -102.27001953 163.91357422 C-92.47474828 167.07649593 -83.67955827 165.5901593 -73.6953125 163.61328125 C-64.67212798 161.87200582 -55.60020647 160.57657585 -46.5 159.3125 C-44.88667172 159.08562064 -43.27339019 158.85840855 -41.66015625 158.63085938 C-37.77396277 158.08342385 -33.88717502 157.54041996 -30 157 C-29.87995605 156.41323486 -29.75991211 155.82646973 -29.63623047 155.22192383 C-26.1747916 138.45038957 -21.84967588 122.09171229 -16.75 105.75 C-15.49272992 101.72055246 -14.43555695 97.72951586 -13.58056641 93.59838867 C-11.10051762 82.49865811 -7.7601224 71.57315117 -4.53564453 60.67163086 C-3.86648939 58.40871931 -3.20062355 56.14485788 -2.53515625 53.88085938 C-2.10435602 52.41921501 -1.67337328 50.95762442 -1.2421875 49.49609375 C-1.0463205 48.83040878 -0.85045349 48.16472382 -0.64865112 47.47886658 C0.49400195 43.62106738 1.72662559 39.82012324 3 36 C8.94 36 14.88 36 21 36 C20.46064659 43.72256018 18.48664933 50.58591419 16.125 57.9375 C15.41901633 60.17570099 14.71328355 62.41398113 14.0078125 64.65234375 C13.69473145 65.63195068 13.38165039 66.61155762 13.05908203 67.62084961 C11.66527418 72.06798988 10.3391693 76.53610232 9 81 C27.81 81 46.62 81 66 81 C66 76.05 66 71.1 66 66 C66.66 61.71 67.32 57.42 68 53 C68.99 42.11 69.98 31.22 71 20 C47.57 20 24.14 20 0 20 C0 13.4 0 6.8 0 0 Z " fill="#000000" stroke="#000000" stroke-width="18" stroke-linecap="round" stroke-linejoin="round" transform="translate(1348,894)"/>
<path d="M0 0 C1.86914062 0.76708984 1.86914062 0.76708984 3.11914062 3.32958984 C3.36664062 4.13396484 3.61414062 4.93833984 3.86914062 5.76708984 C0.15444699 9.52894268 -3.57105118 13.27988589 -7.31445312 17.01318359 C-7.94665771 17.64409912 -8.5788623 18.27501465 -9.23022461 18.92504883 C-11.7308205 21.34855506 -14.31855235 23.65319376 -16.97851562 25.89990234 C-20.10271866 28.61019101 -23.10907684 31.44359944 -26.13085938 34.26708984 C-29.89619044 37.78325188 -33.66471724 41.27871787 -37.56835938 44.64208984 C-40.61528972 47.26853086 -43.44018303 50.053705 -46.2565918 52.92382812 C-48.06974066 54.70698221 -49.93775069 56.37454811 -51.86523438 58.03271484 C-55.96523379 61.59760404 -59.93323957 65.28507986 -63.88085938 69.01708984 C-80.47023136 84.63061641 -80.47023136 84.63061641 -87.94335938 91.07958984 C-93.82976095 96.18762426 -99.46338435 101.57831526 -105.14746094 106.90869141 C-108.28257378 109.84621959 -111.42597054 112.77485011 -114.56835938 115.70458984 C-119.14190553 119.97058995 -123.7070699 124.2453455 -128.26586914 128.52709961 C-133.52849556 133.4692235 -138.80032878 138.39820196 -144.13085938 143.26708984 C-152.24064292 150.6754867 -160.22743951 158.21537477 -168.22900391 165.74023438 C-169.61769069 167.04599515 -171.00684636 168.35125746 -172.39648438 169.65600586 C-173.75127251 170.92918998 -175.10416825 172.20439105 -176.45507812 173.48168945 C-179.39517183 176.25230316 -182.34439041 178.98233442 -185.43945312 181.57958984 C-190.84451129 186.17353038 -193.98022433 189.56066867 -196.19726562 196.31787109 C-199.83069354 205.84991838 -207.88235411 210.84003883 -216.38085938 215.57958984 C-225.15286503 219.36750138 -236.71524176 219.05737126 -245.65429688 215.92724609 C-250.8746779 213.48173637 -255.46806946 210.12796917 -260.13085938 206.76708984 C-261.18917969 206.01169922 -262.2475 205.25630859 -263.33789062 204.47802734 C-265.04390924 203.25962243 -266.74878785 202.0397374 -268.45092773 200.81591797 C-276.57513531 194.98505315 -284.86171336 189.38940174 -293.13085938 183.76708984 C-294.11618652 183.09693848 -295.10151367 182.42678711 -296.11669922 181.73632812 C-300.36530355 178.84695798 -304.61418725 175.95800001 -308.86376953 173.07006836 C-315.18895371 168.77089707 -321.50823293 164.46333003 -327.81835938 160.14208984 C-349.80739436 145.07340777 -349.80739436 145.07340777 -371.94238281 130.22070312 C-376.67640501 127.07630686 -381.40269895 123.92029001 -386.13085938 120.76708984 C-388.20505333 119.38424015 -390.27927158 118.0014269 -392.35351562 116.61865234 C-399.27929688 112.00146484 -406.20507812 107.38427734 -413.13085938 102.76708984 C-413.83154541 102.38797455 -414.53223145 102.00885925 -415.25415039 101.61825562 C-422.15168047 97.64660675 -424.36651417 93.3334411 -426.94726562 85.97021484 C-427.52745705 84.42524323 -427.52745705 84.42524323 -428.11936951 82.84906006 C-429.33862591 79.58128868 -430.51589264 76.30011863 -431.69335938 73.01708984 C-432.51689352 70.79605794 -433.34304017 68.57599286 -434.171875 66.35693359 C-435.67061471 62.31462857 -437.16260555 58.27031264 -438.62133789 54.21337891 C-438.91396011 53.40096741 -439.20658234 52.58855591 -439.5080719 51.75152588 C-440.13085938 49.76708984 -440.13085938 49.76708984 -440.13085938 47.76708984 C-433.95515768 47.10586607 -427.77981689 46.56582212 -421.58789062 46.08105469 C-418.03501429 45.75838527 -414.51254339 45.30567488 -410.97460938 44.84912109 C-391.03502164 42.71400525 -379.34045051 47.86903441 -363.39257812 58.61767578 C-358.47518948 61.85814656 -353.34941721 64.6785434 -348.19335938 67.51708984 C-346.3170331 68.57333102 -344.44200971 69.63189035 -342.56835938 70.69287109 C-341.6634375 71.20414551 -340.75851562 71.71541992 -339.82617188 72.2421875 C-315.34005942 86.09547177 -291.09348193 100.34961864 -266.90447998 114.71398926 C-261.9897669 117.63213715 -257.07384377 120.5482442 -252.15737915 123.46343994 C-250.4290918 124.4884833 -248.70123401 125.51425082 -246.97338867 126.54003906 C-244.9128665 127.76205518 -242.85028046 128.98060142 -240.78515625 130.19482422 C-239.17701888 131.14740007 -237.57676809 132.11371316 -235.9921875 133.10498047 C-232.47208373 135.26857493 -230.24771971 136.19064625 -226.13085938 135.76708984 C-223.7091547 134.65309241 -223.7091547 134.65309241 -221.35742188 133.02099609 C-220.45813965 132.43560059 -219.55885742 131.85020508 -218.63232422 131.24707031 C-217.68309082 130.61430176 -216.73385742 129.9815332 -215.75585938 129.32958984 C-213.76199923 128.02998249 -211.76720589 126.73180574 -209.77148438 125.43505859 C-208.80146484 124.80132324 -207.83144531 124.16758789 -206.83203125 123.51464844 C-203.43269625 121.31540405 -199.98845658 119.20617646 -196.50585938 117.14208984 C-195.9198999 116.79355957 -195.33394043 116.4450293 -194.73022461 116.0859375 C-193.51454362 115.36398828 -192.29830556 114.64297636 -191.08154297 113.92285156 C-179.53326064 107.08060268 -168.05567392 100.12589357 -156.63085938 93.07958984 C-131.71176739 77.7145963 -106.65043659 62.60379015 -81.38427734 47.81542969 C-71.30233376 41.91074764 -61.33301667 35.82536008 -51.36132812 29.73681641 C-47.93286668 27.64636697 -44.50125866 25.5611772 -41.06835938 23.47802734 C-40.47118607 23.11553391 -39.87401276 22.75304047 -39.25874329 22.37956238 C-36.25290213 20.55534675 -33.2459341 18.73302826 -30.23706055 16.91381836 C-24.96175336 13.72144509 -19.70071087 10.51221457 -14.49414062 7.20849609 C-13.66116455 6.68408936 -12.82818848 6.15968262 -11.9699707 5.61938477 C-10.4591976 4.66523718 -8.95460206 3.70120441 -7.45776367 2.7253418 C-2.66201524 -0.29096729 -2.66201524 -0.29096729 0 0 Z " fill="#000000" stroke="#000000" stroke-width="18" stroke-linecap="round" stroke-linejoin="round" transform="translate(1246.130859375,725.23291015625)"/>
<path d="M0 0 C4.52053354 4.18060034 7.90568297 8.85822558 11.390625 13.91796875 C12.30161957 15.23053902 12.30161957 15.23053902 13.23101807 16.56962585 C20.234485 26.70855376 26.9982049 37.00511531 33.75 47.3125 C35.61497348 50.15368192 37.4808026 52.99430043 39.34675598 55.83483887 C40.55384984 57.67243997 41.76063192 59.51024592 42.96708679 61.3482666 C47.20383371 67.79979194 51.47192812 74.22957621 55.76123047 80.64624023 C57.92883958 83.88960022 60.08084432 87.14312563 62.23046875 90.3984375 C62.88853516 91.39230469 63.54660156 92.38617187 64.22460938 93.41015625 C65.54756374 95.4084097 66.86782172 97.4084506 68.18554688 99.41015625 C76.30078398 112.99247322 76.30078398 112.99247322 88 123 C90.40538647 122.9273419 90.40538647 122.9273419 92.9765625 122.4140625 C99.71318087 121.63615942 104.85874243 123.41911183 111.125 125.75 C112.14464844 126.1109375 113.16429687 126.471875 114.21484375 126.84375 C116.21657051 127.55296256 118.21569752 128.26956351 120.21191406 128.99414062 C123.44861208 130.16184604 126.69318444 131.28810258 129.97314453 132.32836914 C131.90411395 132.96822663 133.79083272 133.73728964 135.671875 134.51171875 C139.1636107 135.40067649 139.1636107 135.40067649 142.203125 132.89453125 C143.24104053 131.88971252 144.25639873 130.86115907 145.25 129.8125 C145.765625 129.30396484 146.28125 128.79542969 146.8125 128.27148438 C148.81674057 126.2853233 150.76553331 124.27268875 152.60546875 122.1328125 C154 121 154 121 155.91015625 120.78515625 C161.0397744 121.44614153 165.37723538 122.78265216 170.12109375 124.82421875 C174.78653894 126.7296448 179.59254797 128.20984914 184.38671875 129.75390625 C188.01260248 131.00434615 191.47915925 132.48239623 195 134 C197.8028979 134.96337763 200.62166338 135.85432711 203.44921875 136.7421875 C206.50507193 137.82467895 209.45344645 139.01296658 212.43774414 140.2746582 C218.76416882 142.92171828 225.14252146 145.41188921 231.546875 147.86328125 C233.25269745 148.51855049 233.25269745 148.51855049 234.99298096 149.1870575 C238.57804486 150.56379818 242.16400376 151.93818987 245.75 153.3125 C248.20058075 154.25309913 250.65110213 155.19385293 253.1015625 156.13476562 C259.06702403 158.4249636 265.03321954 160.71324067 271 163 C267.79683681 166.36197094 264.67573485 169.06331497 260.74609375 171.53125 C259.73708008 172.17022217 258.72806641 172.80919434 257.68847656 173.4675293 C256.07924316 174.47360229 256.07924316 174.47360229 254.4375 175.5 C252.74107425 176.57209108 251.04465388 177.64419128 249.34896851 178.717453 C248.20657236 179.44023892 247.06368777 180.16225342 245.9203186 180.88349915 C240.82790067 184.09779353 235.78622455 187.38620134 230.75 190.6875 C221.3506861 196.8260408 211.82024165 202.74306198 202.25341797 208.61621094 C200.36634297 209.77503446 198.48170341 210.9378227 196.59765625 212.1015625 C188.49631621 217.10501824 180.35799211 222.04769549 172.21923828 226.98999023 C171.27419434 227.56434814 170.32915039 228.13870605 169.35546875 228.73046875 C168.44071777 229.28138184 167.5259668 229.83229492 166.58349609 230.39990234 C164.94097079 231.41720633 163.32036297 232.4714863 161.73291016 233.57275391 C156.79825328 236.96833195 156.79825328 236.96833195 153.14453125 237.11328125 C148.48819978 235.46476638 144.11197861 233.37608903 139.6875 231.1875 C137.62642733 230.18333664 135.56522478 229.17943983 133.50390625 228.17578125 C132.43672363 227.65322754 131.36954102 227.13067383 130.27001953 226.59228516 C127.03118209 225.01518363 123.78189889 223.46234495 120.52734375 221.91796875 C109.84422435 216.84519231 99.26853476 211.65344756 88.8515625 206.0546875 C85.20368515 204.09715691 81.51735641 202.22203612 77.8125 200.375 C77.19971191 200.06369141 76.58692383 199.75238281 75.95556641 199.43164062 C71.84737178 197.36014834 67.7012218 195.39950571 63.50947571 193.50198364 C60.78403223 192.2595541 58.07458274 190.98420701 55.36605835 189.7053833 C54.01198896 189.07542541 52.65132138 188.45943434 51.28408813 187.85858154 C38.90689589 182.40582141 38.90689589 182.40582141 36.04296875 175.515625 C35.34973889 173.34762588 34.66970831 171.17538011 34 169 C32.94829218 166.38908675 31.79723251 163.82545105 30.64453125 161.2578125 C30.04205389 159.88723171 29.44000721 158.51646152 28.83837891 157.14550781 C26.44843049 151.74111141 24.01149618 146.35842205 21.55737305 140.98291016 C20.26536131 138.152546 18.98895784 135.31575163 17.72192383 132.47412109 C13.62452621 123.31635851 13.62452621 123.31635851 8.875 114.484375 C-1.46228059 96.31389811 0.10449586 75.30056062 0 55 C-0.00821777 53.81414307 -0.01643555 52.62828613 -0.02490234 51.40649414 C-0.14333772 34.27023619 -0.12821891 17.13612346 0 0 Z " fill="#000000" stroke="#000000" stroke-width="18" stroke-linecap="round" stroke-linejoin="round" transform="translate(1042,1036)"/>
<path d="M0 0 C3.63401577 1.71122564 6.12637103 3.79933887 9.0625 6.5625 C12.77478591 10.01462571 16.54816138 13.31925184 20.5 16.5 C25.3176675 20.38987134 29.90107152 24.48450512 34.4609375 28.671875 C38.93610692 32.77526111 43.520433 36.74621452 48.1484375 40.67578125 C48.73004639 41.17094238 49.31165527 41.66610352 49.91088867 42.17626953 C51.03393579 43.13156177 52.15886054 44.0846549 53.28637695 45.03466797 C54.42612362 46.00423077 55.55058637 46.99196682 56.66142273 47.99452209 C59.0865636 50.12627415 59.0865636 50.12627415 62.19470215 52.33839417 C71.88558827 59.78264332 71.88558827 59.78264332 73.14619446 66.04777527 C73.65860119 70.70894484 73.46685363 75.34051635 73.26953125 80.015625 C73.24523052 81.72476141 73.22675106 83.43398949 73.21379089 85.14324951 C73.16456508 89.60420617 73.03727803 94.05950313 72.89263916 98.51824951 C72.7587267 103.08300205 72.70008606 107.64868582 72.63476562 112.21484375 C72.49607975 121.14569242 72.274753 130.07237256 72 139 C64.921292 136.66468981 57.92010187 134.17171929 50.9375 131.5625 C49.38192383 130.98918945 49.38192383 130.98918945 47.79492188 130.40429688 C39.17288539 127.18401819 31.52192423 123.67844877 24.125 118.1875 C19.34338508 114.62491987 19.34338508 114.62491987 14.296875 111.4609375 C5.67904499 106.48483566 1.57298266 98.0602657 -3.35546875 89.74121094 C-6.22645221 84.95567022 -9.24516332 80.26467313 -12.25 75.5625 C-12.83950439 74.63115234 -13.42900879 73.69980469 -14.03637695 72.74023438 C-16.52494047 68.81686448 -19.02258303 64.91543204 -21.69921875 61.1171875 C-22.43785156 60.06789063 -23.17648437 59.01859375 -23.9375 57.9375 C-24.56527344 57.08027344 -25.19304687 56.22304688 -25.83984375 55.33984375 C-27.33387895 52.32662125 -26.88634312 51.20782881 -26 48 C-25.15058122 46.16848903 -24.23058333 44.36888354 -23.26171875 42.59765625 C-22.69404785 41.55206543 -22.12637695 40.50647461 -21.54150391 39.42919922 C-20.92968262 38.31818848 -20.31786133 37.20717773 -19.6875 36.0625 C-18.73990386 34.32315427 -17.7923085 32.58380811 -16.8447876 30.84442139 C-15.87441164 29.06598133 -14.90086598 27.28931389 -13.92626953 25.51318359 C-12.07778455 22.14419503 -10.23900795 18.76998093 -8.40234375 15.39453125 C-5.6076281 10.25969401 -2.80651542 5.12839658 0 0 Z " fill="#000000" stroke="#000000" stroke-width="18" stroke-linecap="round" stroke-linejoin="round" transform="translate(1319,622)"/>
<path d="M0 0 C0.50192871 0.44134277 1.00385742 0.88268555 1.52099609 1.33740234 C2.08931152 1.83208008 2.65762695 2.32675781 3.24316406 2.83642578 C4.13479248 3.62194824 4.13479248 3.62194824 5.04443359 4.42333984 C10.72602337 9.36657652 16.48997039 14.15313825 22.41943359 18.79833984 C21.87209602 23.36740031 20.67308174 26.67703212 18.46240234 30.70068359 C17.84300781 31.84085938 17.22361328 32.98103516 16.58544922 34.15576172 C15.92637943 35.34936162 15.26687622 36.54272231 14.60693359 37.73583984 C13.34871407 40.03571101 12.09200834 42.33634548 10.83740234 44.63818359 C10.5106955 45.23561371 10.18398865 45.83304382 9.84738159 46.44857788 C4.56105584 56.15498467 -0.48973139 65.98850696 -5.58056641 75.79833984 C-13.1387458 75.82393521 -20.6969138 75.8413085 -28.25512695 75.85327148 C-30.82023537 75.85826479 -33.38534099 75.86506175 -35.95043945 75.8737793 C-43.14408065 75.89759466 -50.33599196 75.88970766 -57.52938843 75.8215332 C-59.41998195 75.80716196 -61.31070113 75.80208077 -63.20132446 75.81176758 C-74.0872131 75.85861871 -74.0872131 75.85861871 -77.41918945 73.49291992 C-78.87293493 71.62021214 -79.73234595 69.8602055 -80.64306641 67.67333984 C-81.41839758 66.12284553 -82.19863305 64.5747971 -82.98291016 63.02880859 C-83.38880371 62.1901123 -83.79469727 61.35141602 -84.21289062 60.48730469 C-86.75662014 55.48611996 -89.75993369 50.75738396 -92.70556641 45.98583984 C-93.30393311 45.00252686 -93.9022998 44.01921387 -94.51879883 43.00610352 C-98.2899651 36.81959627 -102.17588758 30.7527436 -106.32275391 24.81005859 C-107.58056641 22.79833984 -107.58056641 22.79833984 -107.58056641 20.79833984 C-65.05893591 10.06441514 -65.05893591 10.06441514 -45.17529297 5.61376953 C-41.65423207 4.8150502 -38.13882342 3.99489905 -34.62390137 3.16970825 C-31.30840681 2.39393262 -27.99021535 1.63012901 -24.67150879 0.8682251 C-23.03881881 0.49090649 -21.40719782 0.10892944 -19.7767334 -0.27789307 C-17.49796322 -0.81749673 -15.21581719 -1.33957773 -12.93212891 -1.85791016 C-12.24794891 -2.02414886 -11.56376892 -2.19038757 -10.8588562 -2.36166382 C-5.95748078 -3.44713372 -3.87874581 -2.94890128 0 0 Z " fill="#000000" stroke="#000000" stroke-width="18" stroke-linecap="round" stroke-linejoin="round" transform="translate(1282.58056640625,589.20166015625)"/>
<path d="M0 0 C17.66812036 -2.08717485 28.51895578 1.60755275 43.24169922 11.22607422 C47.45599251 13.9363818 51.81807259 16.36359816 56.1875 18.8125 C57.91116455 19.79641279 59.63379322 20.78214215 61.35546875 21.76953125 C66.6934394 24.82513857 72.03351746 27.87704984 77.37402344 30.92822266 C79.79545332 32.31165177 82.21666645 33.69545906 84.63769531 35.07958984 C89.90017962 38.0879721 95.16347181 41.09485034 100.43359375 44.08984375 C120.82894629 55.68862973 141.24221068 67.33634606 161 80 C159.77153801 82.67008177 158.84128782 84.15442266 156.6875 86.25 C149.3787645 93.72870609 145.6815736 102.63538081 145 113 C141.73069171 111.46810642 138.82570536 109.60991609 135.84375 107.578125 C134.83183594 106.88976562 133.81992187 106.20140625 132.77734375 105.4921875 C131.69582031 104.75226563 130.61429688 104.01234375 129.5 103.25 C128.36593442 102.47649065 127.23181925 101.703054 126.09765625 100.9296875 C119.36558481 96.33311976 112.66796763 91.68912233 106 87 C87.43087426 73.95232654 68.56470761 61.34551946 49.6875 48.75 C48.81083679 48.16466492 47.93417358 47.57932983 47.03094482 46.97625732 C45.29844597 45.81991987 43.56539678 44.66440652 41.83178711 43.50973511 C40.12490528 42.37215844 38.41964827 41.23213983 36.71606445 40.08963013 C32.32677249 37.15791258 27.90562258 34.30965531 23.39697266 31.56445312 C22.4852681 31.00010559 21.57356354 30.43575806 20.63423157 29.85430908 C18.90484292 28.78769521 17.16400429 27.73932987 15.41007996 26.71356201 C9.52498589 23.05532681 7.17690863 19.52760081 5 13 C4.59394531 12.02289062 4.18789063 11.04578125 3.76953125 10.0390625 C3.45371094 9.24242187 3.13789062 8.44578125 2.8125 7.625 C2.48894531 6.81289063 2.16539062 6.00078125 1.83203125 5.1640625 C1.17657353 3.45925698 0.57758001 1.73274003 0 0 Z " fill="#000000" stroke="#000000" stroke-width="18" stroke-linecap="round" stroke-linejoin="round" transform="translate(831,789)"/>
<path d="M0 0 C0.62655991 0.31871063 1.25311981 0.63742126 1.89866638 0.96578979 C3.89548205 1.98417647 5.88339509 3.01863676 7.87109375 4.0546875 C10.47437688 5.3949022 13.08091121 6.72872865 15.6875 8.0625 C16.3220108 8.38873352 16.95652161 8.71496704 17.61026001 9.05108643 C23.7589849 12.19742095 30.00997615 15.09480836 36.30859375 17.9296875 C35.12639731 21.78760011 33.80947122 25.06777669 31.62890625 28.4609375 C31.11199219 29.27175781 30.59507813 30.08257813 30.0625 30.91796875 C29.25619141 32.16126953 29.25619141 32.16126953 28.43359375 33.4296875 C27.90378906 34.25855469 27.37398437 35.08742188 26.828125 35.94140625 C25.33139595 38.27749204 23.82719051 40.60775743 22.30859375 42.9296875 C21.83479279 43.95369659 21.36099182 44.97770569 20.87283325 46.03274536 C18.03065504 49.24368795 17.67442743 49.37022552 13.65155029 49.6512146 C11.68667652 49.66862092 9.72134249 49.65262416 7.75683594 49.61083984 C6.68335907 49.611716 5.6098822 49.61259216 4.50387573 49.61349487 C0.95366796 49.60931283 -2.59465334 49.56262759 -6.14453125 49.515625 C-8.605031 49.50443516 -11.06554412 49.49589398 -13.52606201 49.48989868 C-20.00371172 49.4669842 -26.48055484 49.40803641 -32.95788574 49.3416748 C-39.56686491 49.28030991 -46.17597434 49.25289593 -52.78515625 49.22265625 C-65.75425048 49.15829739 -78.72278548 49.05703715 -91.69140625 48.9296875 C-91.21951917 47.4953795 -90.74601497 46.06160347 -90.27183533 44.62805176 C-90.00832747 43.82956062 -89.74481962 43.03106949 -89.47332668 42.20838165 C-88.49932191 39.36991 -87.35280094 36.63960562 -86.1328125 33.8984375 C-85.66423828 32.84011719 -85.19566406 31.78179688 -84.71289062 30.69140625 C-84.23142578 29.61503906 -83.74996094 28.53867188 -83.25390625 27.4296875 C-82.77630859 26.35332031 -82.29871094 25.27695313 -81.80664062 24.16796875 C-80.87004286 22.05837543 -79.91826429 19.95544554 -78.95019531 17.86010742 C-77.65103979 15.01447775 -77.65103979 15.01447775 -76.94042969 12.2434082 C-76.1512256 9.62619826 -75.51253869 7.97778004 -73.69140625 5.9296875 C-69.20388249 4.12537161 -64.58935556 3.64347631 -59.81640625 3.1171875 C-58.43708812 2.93509463 -57.05826091 2.74924714 -55.67993164 2.55981445 C-52.81031267 2.17222617 -49.9391161 1.80895321 -47.06396484 1.46484375 C-42.76080524 0.94675202 -38.47058761 0.3526049 -34.1796875 -0.2578125 C-29.03894225 -0.98113592 -23.89733912 -1.69603866 -18.75 -2.37109375 C-17.20783813 -2.57472534 -17.20783813 -2.57472534 -15.63452148 -2.7824707 C-9.33444084 -3.39862957 -5.70567235 -2.94717307 0 0 Z " fill="#000000" stroke="#000000" stroke-width="18" stroke-linecap="round" stroke-linejoin="round" transform="translate(1333.69140625,1072.0703125)"/>
<path d="M0 0 C4.24600619 1.4153354 5.44002956 4.51661458 7.625 8.1875 C8.52257617 9.66068138 9.42102966 11.13332856 10.3203125 12.60546875 C10.77051758 13.34716309 11.22072266 14.08885742 11.68457031 14.85302734 C13.57286811 17.93500411 15.53276563 20.96806172 17.5 24 C18.22702223 25.13121509 18.95357773 26.26273026 19.6796875 27.39453125 C20.90665943 29.30559084 22.13884091 31.21278131 23.37988281 33.11474609 C24.80434384 35.29972445 26.21544865 37.49288207 27.625 39.6875 C28.07552734 40.37134766 28.52605469 41.05519531 28.99023438 41.75976562 C30.07302172 43.4583562 31.04662155 45.22554011 32 47 C31 50 31 50 29.13581848 51.0753479 C28.32118637 51.40320282 27.50655426 51.73105774 26.66723633 52.06884766 C25.74570267 52.44578766 24.82416901 52.82272766 23.87471008 53.21109009 C22.87062607 53.60807098 21.86654205 54.00505188 20.83203125 54.4140625 C19.80446213 54.82917084 18.77689301 55.24427917 17.71818542 55.67196655 C15.53878009 56.54963586 13.3571711 57.42184952 11.17358398 58.2890625 C7.83882847 59.61453516 4.51182273 60.95809699 1.18554688 62.3046875 C-0.93185522 63.1547338 -3.04968065 64.00372652 -5.16796875 64.8515625 C-6.16193161 65.25259186 -7.15589447 65.65362122 -8.17997742 66.06680298 C-12.8306919 67.90584161 -17.03928252 69.23712442 -22 70 C-23.21706005 72.12092454 -23.21706005 72.12092454 -24 75 C-25.45148251 77.88208037 -27.0479805 80.68497138 -28.625 83.5 C-29.07447998 84.3053418 -29.52395996 85.11068359 -29.98706055 85.94042969 C-33.09481956 91.47342055 -36.33919141 96.90058815 -39.7109375 102.27734375 C-41.64323803 105.38532111 -43.50019226 108.53460902 -45.3515625 111.69140625 C-45.94219482 112.69848633 -46.53282715 113.70556641 -47.14135742 114.74316406 C-48.32938811 116.77332878 -49.51449669 118.8052066 -50.6965332 120.83886719 C-51.23882568 121.76473633 -51.78111816 122.69060547 -52.33984375 123.64453125 C-52.82831787 124.48346924 -53.31679199 125.32240723 -53.82006836 126.18676758 C-54.2094458 126.78513428 -54.59882324 127.38350098 -55 128 C-55.33 128 -55.66 128 -56 128 C-56.08564209 126.72471436 -56.17128418 125.44942871 -56.25952148 124.13549805 C-56.58065175 119.35871728 -56.90348507 114.58205282 -57.22680664 109.80541992 C-57.36593597 107.74653151 -57.5046167 105.68761273 -57.64282227 103.62866211 C-57.84270306 100.65209796 -58.04425076 97.67565041 -58.24609375 94.69921875 C-58.3065538 93.7935466 -58.36701385 92.88787445 -58.42930603 91.95475769 C-58.95047477 84.30854339 -59.48423359 76.65758294 -60.5546875 69.06640625 C-60.91945324 65.07622495 -60.81183511 61.93613296 -60 58 C-58.16251664 55.82624641 -56.60210097 54.27675662 -54.43359375 52.515625 C-53.23752293 51.47948824 -52.04463112 50.43967344 -50.85449219 49.39672852 C-50.22401978 48.84937042 -49.59354736 48.30201233 -48.94396973 47.73806763 C-45.57285535 44.72401618 -42.40906477 41.50746484 -39.23046875 38.29296875 C-38.57258362 37.63140274 -37.91469849 36.96983673 -37.23687744 36.28822327 C-35.21801676 34.25701505 -33.20232367 32.2227122 -31.1875 30.1875 C-28.49651114 27.46963645 -25.80201217 24.75532015 -23.10546875 22.04296875 C-22.50945358 21.43865524 -21.91343842 20.83434174 -21.29936218 20.2117157 C-17.58588771 16.47702192 -13.74144303 12.95462878 -9.74739075 9.52130127 C-7.56936905 7.62508706 -5.52340876 5.62204106 -3.5 3.5625 C-2.49453125 2.54349609 -2.49453125 2.54349609 -1.46875 1.50390625 C-0.9840625 1.00761719 -0.499375 0.51132812 0 0 Z " fill="#000000" stroke="#000000" stroke-width="18" stroke-linecap="round" stroke-linejoin="round" transform="translate(1157,619)"/>
<path d="M0 0 C1.06367294 0.00222061 2.12734589 0.00444122 3.22325134 0.00672913 C5.02500572 0.00684242 5.02500572 0.00684242 6.86315918 0.00695801 C8.17042465 0.01211929 9.47769012 0.01728058 10.8245697 0.02259827 C12.16835477 0.02446253 13.51214052 0.02588639 14.85592651 0.02688599 C18.39873622 0.0307105 21.94150515 0.0405402 25.48429871 0.05158997 C29.09706572 0.06180552 32.7098393 0.06638392 36.32261658 0.07142639 C43.41573225 0.08216254 50.50882019 0.09923816 57.60191345 0.12025452 C57.34969667 3.60102725 57.07169052 7.07930084 56.78941345 10.55775452 C56.68403259 12.01858459 56.68403259 12.01858459 56.57652283 13.50892639 C55.86571133 22.01023194 53.70945285 29.14952557 50.0355072 36.83509827 C49.55476746 37.84258118 49.07402771 38.85006409 48.57872009 39.88807678 C48.0707489 40.93407043 47.56277771 41.98006409 47.03941345 43.05775452 C46.24748596 44.69732117 46.24748596 44.69732117 45.43955994 46.37001038 C39.44692742 58.66016847 32.92733405 70.57548363 25.60191345 82.12025452 C21.1900571 81.50425948 17.62714336 79.78500703 13.72691345 77.74525452 C6.57463219 74.08306623 -0.64402571 70.57633079 -7.89808655 67.12025452 C-9.44858704 66.38089661 -9.44858704 66.38089661 -11.03041077 65.62660217 C-13.4857394 64.45663001 -15.94160112 63.28779543 -18.39808655 62.12025452 C-16.92671815 52.98228238 -14.71945867 44.06951999 -12.39808655 35.12025452 C-12.2095813 34.39058472 -12.02107605 33.66091492 -11.82685852 32.90913391 C-10.66510135 28.41686732 -9.49047823 23.92812672 -8.30604553 19.44178772 C-7.69746217 17.13296367 -7.09372031 14.82290201 -6.48988342 12.51283264 C-6.10150643 11.03944759 -5.71284604 9.5661372 -5.3238678 8.09291077 C-5.14471329 7.40455643 -4.96555878 6.71620209 -4.78097534 6.00698853 C-3.22718614 0.16183057 -3.22718614 0.16183057 0 0 Z " fill="#000000" stroke="#000000" stroke-width="18" stroke-linecap="round" stroke-linejoin="round" transform="translate(1354.3980865478516,992.8797454833984)"/>
<path d="M0 0 C3.27125786 0.97902394 6.50102169 2.03621545 9.71484375 3.1875 C10.78726318 3.56853882 10.78726318 3.56853882 11.88134766 3.95727539 C20.58847728 7.08155621 29.22692042 10.39211792 37.8684082 13.69262695 C43.47800281 15.83323153 49.08890035 17.96341576 54.734375 20.0078125 C56.06106201 20.4884314 56.06106201 20.4884314 57.41455078 20.97875977 C59.0270509 21.55967124 60.64122168 22.1359742 62.25732422 22.70678711 C67.49719289 24.59484914 67.49719289 24.59484914 69.71484375 26.8125 C60.36736268 33.63688207 50.52956378 39.69179196 40.71484375 45.8125 C39.90112305 46.32055176 39.08740234 46.82860352 38.24902344 47.35205078 C33.10281898 50.56150059 27.94140971 53.74536181 22.77392578 56.92041016 C19.92469353 58.68270464 17.08681627 60.46171435 14.25157166 62.24635315 C11.70748475 63.843837 9.15569658 65.42873969 6.60250854 67.0116272 C5.35098149 67.79123417 4.10265269 68.57600064 2.85769653 69.36605835 C1.10995908 70.47404341 -0.64837637 71.56296388 -2.41015625 72.6484375 C-3.92996094 73.60049072 -3.92996094 73.60049072 -5.48046875 74.57177734 C-8.73505581 76.01152416 -9.96732692 75.95810296 -13.28515625 74.8125 C-15.59765625 73.75 -15.59765625 73.75 -17.28515625 72.8125 C-17.42615576 63.38903251 -17.0027529 54.02582284 -16.41015625 44.625 C-16.34196686 43.53656799 -16.34196686 43.53656799 -16.2723999 42.42614746 C-15.18042642 25.1801035 -15.18042642 25.1801035 -14.41015625 17.5625 C-14.28898437 16.34046875 -14.1678125 15.1184375 -14.04296875 13.859375 C-12.81424551 8.91914756 -9.53456448 5.79233105 -5.84765625 2.4375 C-5.29207031 1.91414063 -4.73648437 1.39078125 -4.1640625 0.8515625 C-2.28515625 -0.1875 -2.28515625 -0.1875 0 0 Z " fill="#000000" stroke="#000000" stroke-width="18" stroke-linecap="round" stroke-linejoin="round" transform="translate(1204.28515625,1177.1875)"/>
<path d="M0 0 C0.63378067 0.22196045 1.26756134 0.4439209 1.92054749 0.67260742 C3.92084706 1.37575146 5.91540032 2.0937994 7.91015625 2.8125 C9.27503728 3.29527097 10.64026908 3.77705146 12.00585938 4.2578125 C15.33225513 5.43129165 18.65367499 6.61818767 21.97265625 7.8125 C21.46141988 19.49021495 20.78574045 31.15175625 19.97265625 42.8125 C19.88967285 44.03485352 19.80668945 45.25720703 19.72119141 46.51660156 C19.5981665 48.24088379 19.5981665 48.24088379 19.47265625 50 C19.40046875 51.02480469 19.32828125 52.04960938 19.25390625 53.10546875 C19.01110713 55.44241027 18.61807484 57.55891341 17.97265625 59.8125 C13.88944635 59.20050867 10.78174091 57.85869744 7.140625 55.93359375 C6.02051025 55.34618408 4.90039551 54.75877441 3.74633789 54.15356445 C2.55091322 53.51910098 1.35551998 52.88457829 0.16015625 52.25 C-1.68481279 51.27918736 -3.53095417 50.31063359 -5.37727356 49.34239197 C-6.59343398 48.7046012 -7.80924661 48.0661468 -9.02470398 47.42701721 C-13.47256526 45.09122131 -17.95325748 42.83437764 -22.46484375 40.625 C-31.82687675 36.01691629 -40.91755414 30.89598753 -50.02734375 25.8125 C-41.51603443 16.99664289 -31.47616676 9.67097559 -21.52734375 2.5625 C-20.88176514 2.08474121 -20.23618652 1.60698242 -19.57104492 1.11474609 C-18.94818604 0.67984863 -18.32532715 0.24495117 -17.68359375 -0.203125 C-17.14541016 -0.58758789 -16.60722656 -0.97205078 -16.05273438 -1.36816406 C-10.58652186 -3.57942361 -5.30145728 -1.88496259 0 0 Z " fill="#000000" stroke="#000000" stroke-width="18" stroke-linecap="round" stroke-linejoin="round" transform="translate(1151.02734375,1180.1875)"/>
<path d="M0 0 C0.99 0.495 0.99 0.495 2 1 C-10.28162894 12.37686944 -10.28162894 12.37686944 -15.875 17.375 C-20.75816762 21.75082553 -25.54497805 26.22578305 -30.33154297 30.70654297 C-34.20099632 34.32691911 -38.08810358 37.92551782 -42 41.5 C-49.04987847 47.94668031 -56.02654699 54.47084862 -63 61 C-63.64485352 61.60360352 -64.28970703 62.20720703 -64.95410156 62.82910156 C-68.9377369 66.55867346 -72.91840735 70.29138751 -76.89697266 74.02636719 C-78.34669799 75.38689419 -79.79692341 76.74688846 -81.24755859 78.10644531 C-83.52025027 80.23651967 -85.79150524 82.36811671 -88.0625 84.5 C-88.75263184 85.14630371 -89.44276367 85.79260742 -90.15380859 86.45849609 C-93.39848591 89.50733988 -96.58192689 92.58665871 -99.68359375 95.78125 C-102.24065843 98.36797561 -104.74015983 100.3206884 -108 102 C-108.42410156 101.07058594 -108.84820313 100.14117188 -109.28515625 99.18359375 C-113.81312015 89.53592859 -118.63087444 83.65531146 -127 77 C-106.87557091 64.13721835 -86.458439 51.76082752 -65.86474609 39.66552734 C-59.79384633 36.08936533 -53.79022713 32.41702243 -47.8125 28.6875 C-36.32931074 21.5231801 -24.68282929 14.63961956 -13.01025391 7.78955078 C-11.01030272 6.60060981 -9.02268892 5.39065584 -7.04833984 4.15966797 C-5.6998999 3.32072998 -5.6998999 3.32072998 -4.32421875 2.46484375 C-3.14025513 1.71448853 -3.14025513 1.71448853 -1.93237305 0.94897461 C-0.97584839 0.47923218 -0.97584839 0.47923218 0 0 Z " fill="#000000" stroke="#000000" stroke-width="18" stroke-linecap="round" stroke-linejoin="round" transform="translate(1161,792)"/>
<path d="M0 0 C4.33960363 2.74755969 8.00234334 5.70491938 11.75 9.25 C15.37230915 12.63893752 19.01883555 15.8882293 22.9375 18.9375 C29.53147747 24.09707328 36.9597104 29.92437583 42.19091797 36.49609375 C44.98901552 38.82217755 48.30745833 39.64100886 51.73046875 40.69921875 C52.48088943 40.9391304 53.23131012 41.17904205 54.00447083 41.42622375 C56.39615709 42.18866702 58.79166264 42.93821526 61.1875 43.6875 C62.81211746 44.20293048 64.43646997 44.7191969 66.06054688 45.23632812 C70.03735791 46.50059717 74.01764215 47.75331859 78 49 C76.85854525 52.55833484 75.64631748 55.95984502 74.01171875 59.3203125 C73.63740723 60.09777832 73.2630957 60.87524414 72.87744141 61.67626953 C72.48476074 62.48435059 72.09208008 63.29243164 71.6875 64.125 C68.53905488 70.64974652 65.60906297 77.1565057 63.0703125 83.9453125 C62 86 62 86 59 87 C56.87451172 85.92358398 56.87451172 85.92358398 54.4296875 84.24609375 C53.5325 83.63830078 52.6353125 83.03050781 51.7109375 82.40429688 C50.77507812 81.75525391 49.83921875 81.10621094 48.875 80.4375 C47.96234375 79.81552734 47.0496875 79.19355469 46.109375 78.55273438 C44.27960456 77.30551905 42.45760787 76.04682278 40.64355469 74.77685547 C38.06859137 72.98956216 38.06859137 72.98956216 35.48925781 71.61767578 C28.33450789 67.5718174 26.68371323 62.5207303 24 55 C23.07987781 52.91377912 22.13551269 50.8380927 21.16796875 48.7734375 C20.4409375 47.20903931 20.4409375 47.20903931 19.69921875 45.61303711 C18.95091797 44.01020874 18.95091797 44.01020874 18.1875 42.375 C13.66041524 32.62462394 9.20102188 22.84985276 4.88671875 13.00341797 C4.23205178 11.5242888 3.56630688 10.05005117 2.89453125 8.57861328 C2.52714844 7.77020996 2.15976563 6.96180664 1.78125 6.12890625 C1.27174805 5.01817749 1.27174805 5.01817749 0.75195312 3.88500977 C0 2 0 2 0 0 Z " fill="#000000" stroke="#000000" stroke-width="18" stroke-linecap="round" stroke-linejoin="round" transform="translate(1165,1026)"/>
<path d="M0 0 C3.14382054 2.92915438 5.36217286 5.91683405 7.625 9.5625 C12.2415679 16.90168527 17.05205776 24.10814961 21.875 31.3125 C27.02077475 39.00234936 32.13440634 46.70806551 37.125 54.5 C44.38326031 66.91575813 44.38326031 66.91575813 55 76 C53.64553122 80.06340635 50.89879319 81.43964607 47.5 83.75 C46.22144182 84.63627143 44.94409892 85.52429858 43.66796875 86.4140625 C43.04196777 86.85008789 42.4159668 87.28611328 41.77099609 87.73535156 C38.65923307 89.95742662 35.71087281 92.37950516 32.76953125 94.8203125 C31 96 31 96 28 96 C25.43867458 90.49144897 22.87937642 84.98196184 20.32177734 79.47167969 C19.45544231 77.60587503 18.58859864 75.74030644 17.72119141 73.875 C15.2040599 68.46156307 12.70188944 63.04155815 10.2109375 57.61602783 C9.03272277 55.07069208 7.83118686 52.53754681 6.625 50.00537109 C2.91891733 42.12399196 -0.21921468 35.26274528 0 26.375 C-0.01087646 25.51108643 -0.02175293 24.64717285 -0.03295898 23.75708008 C-0.05797084 21.16990158 -0.03146983 18.58702015 0 16 C-0.00799906 14.37107124 -0.01958637 12.74215524 -0.03515625 11.11328125 C-0.06381086 7.40808103 -0.04716557 3.70511732 0 0 Z " fill="#000000" stroke="#000000" stroke-width="18" stroke-linecap="round" stroke-linejoin="round" transform="translate(1061,1094)"/>
<path d="M0 0 C4.16745438 0.69056746 7.89174512 1.99375253 11.83203125 3.50390625 C12.46864182 3.7466478 13.10525238 3.98938934 13.76115417 4.23948669 C15.77970422 5.01013308 17.79610901 5.78622437 19.8125 6.5625 C21.18671056 7.08825252 22.56105817 7.61364697 23.93554688 8.13867188 C27.29196069 9.42164098 30.64647364 10.7094994 34 12 C34 15.44868813 33.56512796 15.89471057 31.4375 18.44140625 C30.61958984 19.43237305 30.61958984 19.43237305 29.78515625 20.44335938 C29.19605469 21.14267578 28.60695313 21.84199219 28 22.5625 C26.79140116 24.02191558 25.58306676 25.4815502 24.375 26.94140625 C23.49521484 27.99739014 23.49521484 27.99739014 22.59765625 29.07470703 C20.70157478 31.35962428 18.84508452 33.67376197 17 36 C16.35675781 36.76570312 15.71351562 37.53140625 15.05078125 38.3203125 C13.42056335 40.45046389 12.16646838 42.42676046 10.85546875 44.7421875 C0.98692615 60.6873438 -17.80767634 64.49326178 -35 69 C-35.66 69 -36.32 69 -37 69 C-35.7190335 66.2344647 -34.33818937 64.03758847 -32.3203125 61.7578125 C-31.80339844 61.16613281 -31.28648438 60.57445312 -30.75390625 59.96484375 C-29.94759766 59.05412109 -29.94759766 59.05412109 -29.125 58.125 C-28.06183668 56.92215099 -27.00188867 55.71645174 -25.9453125 54.5078125 C-25.47625488 53.97816895 -25.00719727 53.44852539 -24.52392578 52.90283203 C-20.95169589 48.44240913 -18.36869566 43.92262907 -16.23046875 38.6328125 C-15.49038574 36.81946411 -15.49038574 36.81946411 -14.73535156 34.96948242 C-14.21939788 33.68798955 -13.70344742 32.40649539 -13.1875 31.125 C-12.12663814 28.51832827 -11.06123565 25.91351893 -9.99609375 23.30859375 C-9.73708282 22.67337296 -9.4780719 22.03815216 -9.21121216 21.38368225 C-6.27544201 14.1959962 -3.16962462 7.0870128 0 0 Z " fill="#000000" stroke="#000000" stroke-width="18" stroke-linecap="round" stroke-linejoin="round" transform="translate(1348,764)"/>
<path d="M0 0 C6.04188505 2.56540357 9.40986955 7.32514283 12.75 12.8125 C14.67312555 18.58187665 13.95001099 23.96961225 11.9296875 29.59765625 C8.96748567 35.15914113 3.68457412 38.94534448 -2.25 40.8125 C-8.05070248 41.43685596 -13.40631359 41.66849726 -18.75 39.1875 C-23.39104732 34.77850504 -27.79384458 30.44253683 -28.62109375 23.859375 C-28.77010067 16.46161988 -28.32205875 11.40103471 -23.25 5.8125 C-16.331331 -1.08847419 -9.36355748 -3.12118583 0 0 Z " fill="#000000" stroke="#000000" stroke-width="18" stroke-linecap="round" stroke-linejoin="round" transform="translate(1022.25,883.1875)"/>
</g>
</svg>